<svg width="216" height="207" viewBox="0 0 216 207" fill="none" xmlns="http://www.w3.org/2000/svg">
<g clip-path="url(#clip0_3_238)">
<path d="M159.634 9.50125C161.705 12.4725 164.249 15.0237 165.864 18.1167C168.146 22.5979 170.112 27.3591 171.166 32.3638C177.891 63.1654 174.633 93.2052 157.671 119.561C140.235 146.336 113.954 160.593 81.1964 160.232C64.7385 160.121 48.9466 156.309 33.7508 149.988C30.9783 148.771 28.3462 147.711 23.6612 145.927C25.6801 152.338 27.19 157.221 28.8402 162.262C28.2261 162.524 27.7524 162.944 26.9805 163.346C25.8399 162.378 24.3834 161.69 23.5586 160.441C19.1184 154.481 14.8361 148.38 10.5538 142.279C7.79841 138.218 4.74471 134.138 7.28793 129.055C9.84864 123.673 15.4281 122.967 20.4988 123.278C27.4997 123.857 34.606 125.19 41.5544 126.664C43.0283 127.054 43.9411 129.356 45.2047 130.78C43.7837 132.041 42.4681 134.056 40.9592 134.263C36.2921 134.725 31.6775 134.292 26.7471 134.14C27.0104 134.755 26.9754 135.351 27.2737 135.37C70.4758 159.276 114.129 157.61 146.898 122.044C148.495 120.345 149.951 118.489 151.126 116.315C168.403 87.1347 172.907 56.273 163.303 23.4986C162.057 19.2306 159.6 15.1878 157.599 11.0232C158.23 10.4631 159.002 10.0613 159.634 9.50125Z" fill="#61DAFB"/>
</g>
<defs>
<clipPath id="clip0_3_238">
<rect width="202" height="97" fill="white" transform="translate(215.745 72.7712) rotate(138.432)"/>
</clipPath>
</defs>
</svg>
