<svg width="246" height="287" viewBox="0 0 246 287" fill="none" xmlns="http://www.w3.org/2000/svg">
<g clip-path="url(#clip0_3_232)">
<path d="M89.7495 265.656C88.0603 265.444 87.4269 265.656 86.7935 265.444C48.1532 242.174 21.9707 209.172 12.0466 164.747C9.51285 153.535 9.93513 141.899 12.8912 130.476C19.0146 105.936 39.496 89.0121 64.6228 87.5312C77.7141 86.685 90.383 88.1659 101.785 95.3586C102.63 101.493 103.263 107.628 104.53 113.34C106.641 122.648 111.498 130.264 120.155 134.918C126.49 138.515 132.824 138.515 136.202 135.13C140.637 130.687 140.636 124.764 137.892 119.898C134.091 113.129 129.446 106.782 124.589 100.859C121.422 97.051 117.199 93.8777 113.398 90.7045C116.988 66.7994 139.581 56.645 166.608 66.5878C167.452 69.9726 168.297 73.569 169.353 76.9538C173.576 89.4352 181.388 98.9549 194.057 103.397C198.914 105.09 204.192 105.724 208.415 101.282C211.583 97.8972 211.583 91.9738 208.204 86.0504C202.714 76.7422 194.48 70.1842 185.611 64.4723C182.444 62.5684 179.277 60.6644 176.11 58.972C180.333 21.9508 213.483 -4.28131 246 10.5272C245.789 7.77702 246 5.44997 245.155 4.18067C244.1 2.69982 241.777 1.85363 239.877 1.43053C221.929 -1.95427 205.248 0.161227 191.524 13.2773C181.177 23.0086 174.209 34.8554 169.564 48.3946C168.93 50.2985 168.297 52.2024 167.452 54.1064C167.452 54.3179 167.03 54.5295 166.186 55.1641C164.285 54.9526 161.963 54.9526 159.64 54.5295C131.346 50.087 116.566 57.7027 103.474 84.1464C100.94 83.3002 97.9844 82.454 95.2394 81.3963C78.9809 75.896 62.7224 75.4729 46.2528 80.9732C19.4368 89.8583 2.12262 112.917 0.222275 142.111C-0.833481 157.977 1.91147 173.209 7.61249 188.017C21.5483 223.769 44.3525 251.905 78.5587 270.31C80.2478 271.368 82.1482 272.214 83.8374 273.272C84.0485 273.483 84.2597 273.906 84.8931 275.176C77.7141 276.868 70.9572 276.233 64.2005 275.81C57.6548 275.599 50.8981 274.964 43.719 274.541C44.3525 280.041 47.3086 282.157 50.8981 283.426C55.1211 284.695 59.3441 286.388 63.567 286.599C74.9691 287.023 86.5823 287.234 98.1955 286.599C107.275 285.965 109.809 281.099 105.797 273.695C97.1398 258.04 88.2715 242.386 79.4032 226.731C77.9252 224.192 76.0248 222.077 73.7022 219.115C69.6904 223.769 71.3796 227.154 72.8576 230.327C78.7698 241.751 84.0485 253.175 89.7495 265.656ZM202.081 94.9355C187.512 93.0315 178.432 83.7233 177.799 70.6073C187.512 76.9538 196.802 82.6656 202.081 94.9355ZM130.712 127.726C118.255 124.764 112.342 116.302 113.609 103.397C121.633 110.167 128.601 116.514 130.712 127.726Z" fill="white"/>
</g>
<defs>
<clipPath id="clip0_3_232">
<rect width="246" height="287" fill="white" transform="matrix(-1 0 0 1 246 0)"/>
</clipPath>
</defs>
</svg>
