<svg width="101" height="101" viewBox="0 0 101 101" fill="none" xmlns="http://www.w3.org/2000/svg">
<rect width="101" height="101" rx="24" fill="#569AFF"/>
<path fill-rule="evenodd" clip-rule="evenodd" d="M39.6791 28.419H61.8729C67.8782 28.3683 72.8229 33.1266 73.0029 39.1295V55.2061C72.8228 61.2176 67.8647 65.9794 61.8508 65.9165H58.4058C57.5476 65.9192 56.7363 66.3086 56.1975 66.9765L52.9291 71.1282C52.3837 71.7848 51.5744 72.1647 50.7208 72.1647C49.8672 72.1647 49.0579 71.7848 48.5125 71.1282L45.222 66.9765C44.6832 66.3086 43.8719 65.9192 43.0137 65.9165H39.6791C33.6225 66.0404 28.5971 61.2613 28.4166 55.2061V39.1295C28.5971 33.0743 33.6225 28.2952 39.6791 28.419ZM42.4395 51.5624C43.3543 51.5624 44.0958 50.8208 44.0958 49.9061V44.6061C44.0958 43.6914 43.3543 42.9499 42.4395 42.9499C41.5248 42.9499 40.7833 43.6914 40.7833 44.6061V49.9061C40.7833 50.8208 41.5248 51.5624 42.4395 51.5624ZM52.377 49.9061C52.377 50.8208 51.6355 51.5624 50.7208 51.5624C49.8061 51.5624 49.0645 50.8208 49.0645 49.9061V44.6061C49.0645 43.6914 49.8061 42.9499 50.7208 42.9499C51.6355 42.9499 52.377 43.6914 52.377 44.6061V49.9061ZM59.002 51.5624C59.9168 51.5624 60.6583 50.8208 60.6583 49.9061V44.6061C60.6583 43.6914 59.9168 42.9499 59.002 42.9499C58.0873 42.9499 57.3458 43.6914 57.3458 44.6061V49.9061C57.3458 50.8208 58.0873 51.5624 59.002 51.5624Z" fill="white"/>
</svg>
