<svg width="101" height="101" viewBox="0 0 101 101" fill="none" xmlns="http://www.w3.org/2000/svg">
<rect width="101" height="101" rx="24" fill="#FF7979"/>
<path d="M50.6128 28.4167L47.5874 34.6C45.4255 39.0174 42.5281 43.035 39.0191 46.4809L38.6216 46.8563C36.3679 49.0442 35.0802 52.0408 35.0441 55.1817V55.5792C34.9844 61.7297 38.6494 67.3057 44.3191 69.6904L44.8932 69.9334C48.6118 71.5128 52.8126 71.5128 56.5311 69.9334H56.6636C62.3757 67.4516 66.0406 61.7845 65.9607 55.5571V45.9729C64.0572 50.3201 60.6002 53.8007 56.2661 55.7338C56.2661 55.7338 56.2661 55.7338 56.1336 55.7338C56.0011 55.7338 54.4553 56.3742 53.7928 55.7338C53.2011 55.135 53.1444 54.1906 53.6603 53.5254L53.8149 53.415H53.9253C58.9951 49.5614 60.1771 42.4213 56.6195 37.1396C53.7486 32.7671 50.6128 28.4167 50.6128 28.4167Z" fill="white"/>
</svg>
