<svg width="128" height="128" viewBox="0 0 128 128" fill="none" xmlns="http://www.w3.org/2000/svg">
<path fill-rule="evenodd" clip-rule="evenodd" d="M88.0382 42.812C89.6432 47.455 90.7992 52.195 91.1792 57.108C91.6512 63.203 91.4352 69.255 90.1502 75.25C90.1152 75.415 90.0412 75.57 89.9862 75.73C89.5832 75.731 89.1722 75.681 88.7782 75.742C85.4492 76.265 82.1232 76.807 78.7972 77.346C75.3592 77.903 71.9162 78.438 68.4842 79.033C67.2682 79.243 65.7632 78.992 65.2722 80.674C65.2582 80.72 65.1182 80.728 65.0372 80.754L65.2032 70.703L65.0342 46.451L66.6362 46.176C69.2562 45.747 71.8762 45.312 74.4982 44.895C77.6272 44.398 80.7592 43.915 83.8902 43.43C85.2712 43.215 86.6542 43.018 88.0382 42.812V42.812Z" fill="#439934"/>
<path fill-rule="evenodd" clip-rule="evenodd" d="M61.7288 110.054C60.0388 108.601 58.2898 107.212 56.6698 105.684C47.9528 97.462 41.5768 87.785 38.4368 76.118C37.5718 72.907 36.9948 69.644 36.8098 66.326C36.6798 64.004 36.4918 61.661 36.6558 59.351C37.0928 53.207 37.9808 47.122 39.7828 41.204L39.8818 41.066C40.0568 41.299 40.3088 41.505 40.3978 41.768C42.1568 46.948 43.9028 52.132 45.6398 57.319C51.0978 73.619 56.5488 89.923 62.0158 106.219C62.1228 106.537 62.3998 106.798 62.5988 107.085L61.7288 110.054V110.054Z" fill="#45A538"/>
<path fill-rule="evenodd" clip-rule="evenodd" d="M88.038 42.812C86.654 43.018 85.27 43.215 83.889 43.428C80.758 43.913 77.626 44.396 74.497 44.893C71.875 45.31 69.255 45.745 66.635 46.174L65.033 46.449L65.021 45.404C64.968 44.545 64.877 43.687 64.867 42.828C64.798 37.35 64.755 31.872 64.687 26.394C64.645 22.965 64.582 19.537 64.512 16.109C64.469 13.979 64.423 11.848 64.327 9.721C64.275 8.578 64.091 7.441 64.016 6.298C63.974 5.641 64.032 4.979 64.045 4.319C64.862 5.902 65.661 7.497 66.501 9.068C67.828 11.552 69.942 13.382 71.845 15.379C79.368 23.271 84.709 32.447 88.038 42.812V42.812Z" fill="#46A037"/>
<path fill-rule="evenodd" clip-rule="evenodd" d="M65.0359 80.753C65.1169 80.727 65.2579 80.719 65.2709 80.673C65.7619 78.991 67.2669 79.242 68.4829 79.032C71.9149 78.438 75.3579 77.902 78.7959 77.345C82.1219 76.806 85.4479 76.264 88.7769 75.741C89.1709 75.679 89.5819 75.73 89.9849 75.729C89.3629 77.949 88.8729 80.217 88.0839 82.376C87.1879 84.825 86.1039 87.215 84.9529 89.558C83.2298 93.0527 81.0972 96.33 78.5999 99.321C76.6809 101.629 74.5419 103.762 72.3979 105.869C71.2129 107.034 69.8159 107.983 68.5159 109.03L68.1789 108.8L66.9649 107.762L65.7089 105.009C64.851 101.798 64.383 98.4944 64.3149 95.171L64.3379 94.61L64.5089 92.184C64.5659 91.356 64.6419 90.529 64.6769 89.699C64.8059 86.717 64.9179 83.735 65.0359 80.753V80.753Z" fill="#409433"/>
<path fill-rule="evenodd" clip-rule="evenodd" d="M65.0358 80.753C64.9178 83.735 64.8058 86.717 64.6788 89.7C64.6438 90.53 64.5678 91.357 64.5108 92.185L63.7458 92.474C62.0468 87.472 60.3468 82.523 58.6838 77.561C55.9338 69.352 53.2168 61.13 50.4708 52.919C48.2529 46.2915 46.0196 39.6691 43.7708 33.052C43.6658 32.742 43.3638 32.5 43.1538 32.226L48.0498 23.224C48.2178 23.516 48.4398 23.789 48.5458 24.103C50.8133 30.8051 53.0693 37.5111 55.3138 44.221C58.2298 52.951 61.1278 61.688 64.0418 70.419C64.1578 70.768 64.3498 71.09 64.5328 71.481L65.2028 70.701L65.0358 80.753V80.753Z" fill="#4FAA41"/>
<path fill-rule="evenodd" clip-rule="evenodd" d="M43.1548 32.227C43.3648 32.501 43.6658 32.743 43.7718 33.053C46.0206 39.6701 48.2539 46.2925 50.4718 52.92C53.2178 61.131 55.9348 69.353 58.6848 77.562C60.3468 82.523 62.0468 87.473 63.7468 92.475L64.5118 92.186L64.3408 94.612L64.1858 95.171C63.9198 97.827 63.6958 100.489 63.3718 103.139C63.2088 104.467 62.8628 105.771 62.5998 107.086C62.4018 106.799 62.1238 106.538 62.0168 106.22C56.5498 89.923 51.0988 73.62 45.6408 57.32C43.9044 52.1326 42.1571 46.949 40.3988 41.769C40.3098 41.506 40.0588 41.3 39.8828 41.067L43.1548 32.227V32.227Z" fill="#4AA73C"/>
<path fill-rule="evenodd" clip-rule="evenodd" d="M65.2018 70.702L64.5318 71.482C64.3488 71.091 64.1568 70.768 64.0408 70.42C61.1278 61.689 58.2288 52.952 55.3128 44.222C53.0684 37.5121 50.8124 30.8061 48.5448 24.104C48.4398 23.79 48.2178 23.516 48.0488 23.225L54.1038 15.26C54.2948 15.515 54.5668 15.742 54.6658 16.029C56.3468 20.95 58.0128 25.877 59.6688 30.807C61.2158 35.411 62.7398 40.022 64.3048 44.62C64.4098 44.928 64.7748 45.146 65.0188 45.406L65.0308 46.451C65.0888 54.533 65.1458 62.618 65.2018 70.702V70.702Z" fill="#57AE47"/>
<path fill-rule="evenodd" clip-rule="evenodd" d="M65.021 45.404C64.777 45.144 64.412 44.926 64.307 44.618C62.742 40.02 61.218 35.409 59.671 30.805C58.015 25.875 56.349 20.949 54.668 16.027C54.569 15.74 54.297 15.513 54.106 15.258C56.075 13.33 57.983 11.333 60.031 9.49399C61.852 7.85999 63.316 6.10799 63.383 3.52599C63.386 3.41899 63.442 3.31199 63.528 3.01199L64.047 4.31799C64.034 4.97899 63.975 5.63999 64.018 6.29699C64.093 7.43999 64.277 8.57699 64.329 9.71999C64.425 11.847 64.471 13.978 64.514 16.108C64.583 19.536 64.646 22.964 64.689 26.393C64.756 31.871 64.8 37.349 64.869 42.827C64.877 43.688 64.967 44.545 65.021 45.404V45.404Z" fill="#60B24F"/>
<path fill-rule="evenodd" clip-rule="evenodd" d="M62.598 107.085C62.861 105.77 63.207 104.465 63.37 103.138C63.695 100.489 63.918 97.826 64.184 95.17L64.25 95.16L64.316 95.171C64.3841 98.4944 64.8521 101.798 65.71 105.009C65.534 105.241 65.285 105.448 65.192 105.71C64.465 107.76 63.78 109.826 63.049 111.876C62.949 112.156 62.671 112.374 62.475 112.62L61.728 110.054L62.598 107.085V107.085Z" fill="#A9AA88"/>
<path fill-rule="evenodd" clip-rule="evenodd" d="M62.4761 112.621C62.6721 112.375 62.9511 112.157 63.0501 111.877C63.7811 109.827 64.4671 107.762 65.1931 105.711C65.2861 105.449 65.5341 105.242 65.7111 105.01L66.9661 107.764C66.7181 108.116 66.3761 108.433 66.2381 108.825L63.8341 115.884C63.7351 116.167 63.3971 116.367 63.1711 116.606L62.4761 112.621V112.621Z" fill="#B6B598"/>
<path fill-rule="evenodd" clip-rule="evenodd" d="M63.1709 116.605C63.3979 116.367 63.7349 116.166 63.8339 115.883L66.2379 108.824C66.3749 108.433 66.7179 108.115 66.9659 107.763L68.1809 108.8C67.5939 109.38 67.2679 110.05 67.4639 110.897L67.0949 112.105C66.9269 112.312 66.6839 112.492 66.6009 112.729C65.7619 115.132 64.9609 117.548 64.1159 119.951C64.0089 120.256 63.7119 120.495 63.5019 120.763C63.3929 119.376 63.2819 117.992 63.1709 116.605V116.605Z" fill="#C2C1A7"/>
<path fill-rule="evenodd" clip-rule="evenodd" d="M63.5028 120.763C63.7118 120.494 64.0088 120.255 64.1168 119.951C64.9618 117.549 65.7628 115.133 66.6018 112.729C66.6848 112.493 66.9268 112.312 67.0958 112.105L66.5868 117.65C66.4508 117.807 66.2538 117.944 66.1888 118.127C65.6138 119.741 65.0718 121.367 64.4948 122.981C64.3758 123.314 64.1478 123.608 63.9698 123.919C63.8118 123.712 63.5288 123.512 63.5158 123.296C63.4648 122.455 63.4998 121.608 63.5028 120.763V120.763Z" fill="#CECDB7"/>
<path fill-rule="evenodd" clip-rule="evenodd" d="M63.9692 123.919C64.1472 123.607 64.3752 123.313 64.4942 122.981C65.0722 121.368 65.6132 119.742 66.1882 118.127C66.2532 117.944 66.4512 117.808 66.5862 117.65L66.5982 121.29L65.3802 124.414L63.9692 123.919V123.919Z" fill="#DBDAC7"/>
<path fill-rule="evenodd" clip-rule="evenodd" d="M65.3799 124.415L66.5979 121.291L66.8489 124.987L65.3799 124.415V124.415Z" fill="#EBE9DC"/>
<path fill-rule="evenodd" clip-rule="evenodd" d="M67.4639 110.898C67.2679 110.051 67.5929 109.38 68.1809 108.801L68.5179 109.031L67.4639 110.898V110.898Z" fill="#CECDB7"/>
<path fill-rule="evenodd" clip-rule="evenodd" d="M64.3161 95.172L64.2501 95.161L64.1841 95.171L64.3391 94.612L64.3161 95.172V95.172Z" fill="#4FAA41"/>
</svg>
